<?xml version="1.0" encoding="UTF-8"?>
<!DOCTYPE svg PUBLIC "-//W3C//DTD SVG 1.1//EN" "http://www.w3.org/Graphics/SVG/1.1/DTD/svg11.dtd">
<!-- Creator: CorelDRAW X8 -->
<svg xmlns="http://www.w3.org/2000/svg" xml:space="preserve" width="331.077mm" height="331.084mm" version="1.1" shape-rendering="geometricPrecision" text-rendering="geometricPrecision" image-rendering="optimizeQuality" fill-rule="evenodd" clip-rule="evenodd"
viewBox="0 0 2303 2303"
 xmlns:xlink="http://www.w3.org/1999/xlink">
 <defs>
   <linearGradient id="id0" gradientUnits="userSpaceOnUse" x1="-0.0445276" y1="1151.77" x2="2303.45" y2="1151.77">
    <stop offset="0" stop-opacity="1" stop-color="#045d9b"/>
    <stop offset="1" stop-opacity="1" stop-color="#033f69"/>
   </linearGradient>
 </defs>
 <g id="phone">
  <metadata id="CorelCorpID_0Corel-Layer"/>
  <path fill="url(#id0)" d="M1751 1524c-75,-74 -169,-74 -244,0 -57,56 -114,113 -170,170 -15,16 -28,20 -47,9 -37,-20 -76,-36 -112,-58 -165,-104 -303,-238 -426,-389 -61,-74 -115,-154 -153,-245 -8,-18 -6,-30 9,-45 57,-55 112,-111 168,-168 78,-79 78,-171 0,-250 -45,-45 -89,-89 -134,-134 -46,-46 -91,-92 -138,-138 -75,-73 -169,-73 -244,1 -57,56 -113,114 -171,170 -54,51 -82,114 -87,187 -9,120 20,232 61,342 84,227 213,429 369,614 210,250 461,448 755,591 132,64 269,114 419,122 102,5 191,-20 263,-100 49,-55 104,-105 155,-157 77,-78 78,-172 1,-249 -91,-91 -182,-182 -274,-273zm185 -1151c-204,-204 -462,-333 -747,-373l-25 178c246,34 469,146 646,322 167,167 277,379 317,611l176 -30c-46,-269 -173,-514 -367,-708zm-276 769l177 -30c-28,-163 -105,-310 -221,-427 -124,-123 -279,-201 -451,-225l-25 178c133,19 254,79 349,174 90,90 149,204 171,330z"/>
 </g>
</svg>
